<?xml version="1.0" encoding="UTF-8" standalone="no"?>
<!-- Creator: CorelDRAW -->
<svg
   xmlns:dc="http://purl.org/dc/elements/1.1/"
   xmlns:cc="http://web.resource.org/cc/"
   xmlns:rdf="http://www.w3.org/1999/02/22-rdf-syntax-ns#"
   xmlns:svg="http://www.w3.org/2000/svg"
   xmlns="http://www.w3.org/2000/svg"
   xmlns:sodipodi="http://inkscape.sourceforge.net/DTD/sodipodi-0.dtd"
   xmlns:inkscape="http://www.inkscape.org/namespaces/inkscape"
   xml:space="preserve"
   width="95.595mm"
   height="73.0874mm"
   style="shape-rendering:geometricPrecision; text-rendering:geometricPrecision; image-rendering:optimizeQuality; fill-rule:evenodd; clip-rule:evenodd"
   viewBox="0 0 51.2951 39.2178"
   id="svg11819"
   sodipodi:version="0.32"
   inkscape:version="0.43"
   sodipodi:docname="logoritsi-nuevo3.svg"
   sodipodi:docbase="/home/sergio/Docs/RITSI"
   inkscape:export-filename="Docs/RITSI/logoritsi-nuevo3-mini.png"
   inkscape:export-xdpi="26.57"
   inkscape:export-ydpi="26.57"><metadata
   id="metadata11867"><rdf:RDF><cc:Work
       rdf:about=""><dc:format>image/svg+xml</dc:format><dc:type
         rdf:resource="http://purl.org/dc/dcmitype/StillImage" /></cc:Work></rdf:RDF></metadata><sodipodi:namedview
   inkscape:window-height="944"
   inkscape:window-width="1278"
   inkscape:pageshadow="2"
   inkscape:pageopacity="0.0"
   borderopacity="1.0"
   bordercolor="#666666"
   pagecolor="#ffffff"
   id="base"
   showguides="true"
   inkscape:guide-bbox="true"
   inkscape:zoom="4"
   inkscape:cx="196.89379"
   inkscape:cy="165.68647"
   inkscape:window-x="0"
   inkscape:window-y="27"
   inkscape:current-layer="svg11819" />
 <defs
   id="defs11821">
  <style
   type="text/css"
   id="style11823">
   
    .fil0 {fill:#DA2724}
    .fil2 {fill:#E7823E}
    .fil1 {fill:url(#id0)}
   
  </style>
  <radialGradient
   id="id0"
   gradientUnits="userSpaceOnUse"
   cx="31.1101"
   cy="12.1027"
   r="6.29675"
   fx="31.1101"
   fy="12.1027">
   <stop
   offset="0"
   style="stop-color:white"
   id="stop11826" />
   <stop
   offset="0.368627"
   style="stop-color:#898A8A"
   id="stop11828" />
   <stop
   offset="1"
   style="stop-color:#131516"
   id="stop11830" />
  </radialGradient>
 
  <metadata
   id="CorelCorpID_0Corel-Layer" />
  
  
  
  
  
  
  
  
  
  
  
  
  
  
  
  
 </defs>
 <path
   style="fill:#da2724"
   id="path11834"
   d="M 13.791800,1.8253100 C 13.234661,2.7991100 15.351290,8.6205500 15.368080,11.691660 C 15.377363,13.393450 15.946898,17.395910 15.522295,20.241980 C 15.192025,22.455670 14.357255,23.675550 14.317225,24.068390 C 14.140151,25.806670 21.731585,23.192678 23.599775,23.075917 C 25.467965,22.959155 29.449985,22.891116 30.722235,22.725632 C 31.994485,22.560148 41.203935,23.552622 41.581035,22.959155 C 41.728650,22.726866 41.287790,21.270835 41.605503,18.914515 C 42.112954,15.150885 42.735073,9.6401250 43.077043,5.9395150 C 43.282234,3.7192750 44.491383,2.6922950 43.449221,1.6501350 C 42.398371,0.59928500 21.556421,-0.62671500 20.739121,0.36575500 C 19.921790,1.3582280 18.870931,2.0004150 19.805028,2.7009850 C 20.739121,3.4015540 23.249598,2.7010923 23.774918,3.0512700 C 24.300238,3.4014470 23.617966,4.6215400 24.533868,4.8026900 C 25.449770,4.9838420 38.680568,1.9787900 39.596068,4.0437400 C 40.036714,5.0374480 38.046988,21.200640 37.435978,21.557940 C 37.135381,21.733780 33.095138,21.416925 28.779098,21.511149 C 24.239558,21.610257 18.989588,22.753409 18.929268,22.667179 C 18.864824,22.575047 19.808790,19.478399 19.645989,15.883739 C 19.393578,10.310679 17.774749,2.4923395 17.002699,1.5917395 C 16.506892,1.0133515 14.348899,0.85146250 13.791759,1.8252625 L 13.791800,1.8253100 z "
   class="fil0" /><path
   style="fill:#da2724"
   id="path11836"
   d="M 13.177700,29.993700 C 14.398280,29.912192 22.401860,28.942850 28.823800,28.826080 C 35.245690,28.709318 45.754200,29.993700 45.637500,30.635880 C 45.520738,31.278069 36.597710,34.516060 34.370000,34.722540 C 29.639760,35.160986 5.2813000,32.999720 1.1513000,33.554920 C 0.50481900,33.641794 -0.68195000,35.526670 0.50911100,35.423110 C 1.7001710,35.319548 15.493411,35.523613 20.592111,36.006918 C 29.366671,36.838630 34.800311,39.230688 36.938711,39.217858 C 39.484551,39.202565 40.791841,36.532338 43.769261,34.664158 C 46.746681,32.795968 50.575341,32.340788 51.242001,31.336458 C 52.350111,29.667188 35.847501,27.517558 30.575201,27.775228 C 29.163491,27.844180 17.946101,28.126640 13.412901,28.703901 C 11.935081,28.892082 11.957191,30.075201 13.177768,29.993701 L 13.177700,29.993700 z "
   class="fil0" /><path
   style="fill:#da2724"
   id="path11838"
   d="M 9.6748400,30.635900 C 10.618645,30.164078 33.270440,31.068873 34.661840,31.686750 C 35.775850,32.181431 35.771070,32.737600 34.078032,32.562462 C 32.384992,32.387320 26.460032,31.921186 21.818032,31.745131 C 16.297182,31.535754 10.167332,32.502150 9.3245320,32.445700 C 8.7876220,32.409749 9.3245857,30.810980 9.6748170,30.635900 L 9.6748400,30.635900 z "
   class="fil0" /><path
   style="fill:#da2724"
   id="path11840"
   d="M 9.6164600,37.583200 C 9.0668330,36.975299 12.039960,33.876770 14.170160,32.212170 C 16.300360,30.547570 22.159530,26.222340 22.927280,26.899520 C 23.695030,27.576694 19.665470,29.732170 18.140060,31.336460 C 16.505400,32.504080 10.166090,38.191110 9.6164600,37.583200 L 9.6164600,37.583200 z "
   class="fil0" /><path
   style="fill:#da2724"
   id="path11842"
   d="M 15.571300,38.283700 C 14.748013,37.735790 20.781840,31.292710 22.518610,29.876870 C 24.255380,28.461030 30.161450,25.435050 30.925440,26.724310 C 31.689434,28.013570 28.006670,28.532240 25.028980,30.694200 C 21.863700,32.992300 17.013860,39.243770 15.571290,38.283700 L 15.571300,38.283700 z "
   class="fil0" /><path
   style="fill:#da2724"
   id="path11844"
   d="M 20.241800,38.692400 C 20.767227,39.217827 21.236956,38.496706 22.343510,38.400496 C 23.686270,38.283788 24.453640,36.297716 28.823780,32.971086 C 32.030380,30.530096 36.258480,28.394476 36.238140,28.008716 C 36.219950,27.663261 35.099500,27.388366 34.428340,27.424908 C 33.635585,27.468103 29.465970,30.110428 28.356740,30.986138 C 27.247510,31.861850 19.655100,38.105698 20.241810,38.692398 L 20.241800,38.692400 z "
   class="fil0" /><path
   style="fill:#da2724"
   id="path11846"
   d="M 40.208000,27.308200 C 40.558285,27.133058 42.251330,26.841154 42.951900,27.308200 C 43.262960,27.515538 38.507390,31.085460 37.464110,31.920280 C 35.219400,33.716510 30.516800,39.334640 28.998900,38.984360 C 27.481000,38.634075 29.465946,35.948560 32.384990,33.321420 C 35.304030,30.694280 39.857730,27.483340 40.208020,27.308200 L 40.208000,27.308200 z "
   class="fil0" />
<path
   style="fill:#000000;fill-opacity:1;stroke:none;stroke-width:1.5744499;stroke-linecap:butt;stroke-linejoin:miter;stroke-miterlimit:4;stroke-opacity:1"
   d="M 29.725261,7.2614592 C 26.702593,7.2614592 24.235774,9.7282797 24.235773,12.750948 C 24.235773,15.773616 26.702593,18.240437 29.725261,18.240436 C 32.74793,18.240436 35.214752,15.773616 35.21475,12.750948 C 35.21475,9.7282795 32.74793,7.2614592 29.725261,7.2614592 z M 29.725261,9.5434658 C 31.984442,9.5434658 32.584145,10.491768 32.584145,12.750948 C 32.584145,15.010127 31.984442,17.020633 29.725261,17.020633 C 27.466082,17.020633 25.575867,15.010128 25.575867,12.750948 C 25.575867,10.491768 27.466081,9.5434658 29.725261,9.5434658 z "
   id="path1336"
   sodipodi:nodetypes="csssccsssc" /><path
   style="fill:#da2724;fill-rule:evenodd"
   id="path3117"
   d="M 29.782616,20.663958 C 29.250278,20.868998 28.721096,13.670766 28.754637,11.837754 C 28.788179,10.004741 29.660009,4.745484 30.484784,4.9804203 C 31.309561,5.2153542 30.186312,7.749713 30.016331,10.747828 C 29.835617,13.934787 30.715386,20.304701 29.782612,20.663964 L 29.782616,20.663958 z "
   class="fil0" /><path
   style="fill:#da2724;fill-rule:evenodd"
   id="path3119"
   d="M 23.411902,18.604724 C 22.862275,17.996823 25.835402,14.898294 27.965602,13.233694 C 30.095802,11.569094 35.954972,7.2438638 36.722722,7.9210438 C 37.490472,8.5982178 33.460912,10.753694 31.935502,12.357984 C 30.300842,13.525604 23.961532,19.212634 23.411902,18.604724 L 23.411902,18.604724 z "
   class="fil0" /><path
   style="fill:#da2724;fill-rule:evenodd"
   id="path3121"
   d="M 36.811632,11.716112 C 37.172103,11.794094 38.492171,12.354212 38.590913,12.78016 C 38.634782,12.969273 32.833404,12.30435 31.521377,12.175539 C 28.698402,11.898404 21.372159,11.93059 20.65453,11.226263 C 19.936906,10.521935 23.268412,10.404586 27.161195,10.668751 C 31.053976,10.932914 36.451173,11.638134 36.811645,11.716119 L 36.811632,11.716112 z "
   class="fil0" /><path
   style="fill:#da2724;fill-rule:evenodd"
   id="path3125"
   d="M 20.068885,12.322996 C 20.037548,12.705988 20.871941,12.633004 21.67698,13.020057 C 22.653837,13.489743 24.602098,13.088674 29.91542,13.589456 C 33.814131,13.956881 38.170538,14.819103 38.436385,14.676817 C 38.674474,14.549406 38.128951,14.027628 37.656465,13.785261 C 37.098356,13.498994 32.413862,12.835745 31.042535,12.719569 C 29.671205,12.603395 20.103876,11.895342 20.068893,12.322999 L 20.068885,12.322996 z "
   class="fil0" /><path
   sodipodi:nodetypes="cssccssc"
   id="path4012"
   d="M 33.603507,16.629193 C 32.608968,17.623731 31.236595,18.240436 29.725261,18.240436 C 26.702593,18.240437 24.235773,15.773616 24.235773,12.750948 C 24.235773,11.239614 24.852478,9.8672417 25.847017,8.872703 L 26.803371,10.300014 C 26.04842,10.819487 25.575867,11.621358 25.575867,12.750948 C 25.575867,15.010128 27.466082,17.020633 29.725261,17.020633 C 30.854851,17.020633 31.569572,16.518007 32.001896,15.732983"
   style="fill:#000000;fill-opacity:1;stroke:none;stroke-width:1.5744499;stroke-linecap:butt;stroke-linejoin:miter;stroke-miterlimit:4;stroke-opacity:1" /></svg>